<svg width="24" height="24" viewBox="0 0 24 24" fill="none" xmlns="http://www.w3.org/2000/svg">
<g clip-path="url(#clip0_8933_36227)">
<rect width="24" height="24" fill="#00ABC2"/>
<g clip-path="url(#clip1_8933_36227)">
<path fill-rule="evenodd" clip-rule="evenodd" d="M0 3H24V21H0V3Z" fill="#00ABC2"/>
<path fill-rule="evenodd" clip-rule="evenodd" d="M2.25748 20.5131C2.38123 20.6331 2.33998 20.8318 2.68123 20.8056C3.19873 20.8056 3.21373 20.4906 3.21373 20.2693C3.21373 20.0481 2.43748 19.7406 2.39998 19.4143C2.36248 19.0881 2.57998 19.0018 2.75998 19.0018C2.93623 19.0018 3.05998 19.1031 3.05998 19.1931C3.05998 19.2831 2.97748 19.3131 2.84998 19.3131C2.72248 19.3131 2.90623 19.2493 2.79748 19.2006C2.68873 19.1518 2.61748 19.2756 2.61748 19.3506C2.61748 19.4331 2.88748 19.4556 3.06748 19.3993C3.10498 19.5756 3.11998 19.5868 2.86873 19.8868C3.04873 19.7706 3.06373 19.7443 3.26248 19.8118C3.06373 19.6393 3.21373 19.2943 3.21748 19.2081C3.22123 19.1218 3.17998 19.0168 3.10498 18.9643C2.95873 18.8331 2.64748 18.8256 2.45998 18.9118C2.18623 19.0318 2.17123 19.3918 2.24248 19.5118L2.99998 20.2768C3.05248 20.3668 3.07498 20.6218 2.75248 20.6331C2.41498 20.6593 2.29498 20.1981 2.23498 20.0443C2.15623 20.2131 2.06623 20.6743 1.72498 20.6481C1.40248 20.6368 1.34248 20.3856 1.39498 20.2918L2.17123 19.5043C2.24623 19.3843 2.23123 19.0243 1.95748 18.9043C1.76998 18.8181 1.45873 18.8293 1.31623 18.9568C1.23373 19.0093 1.18873 19.1106 1.19623 19.2006C1.20373 19.2906 1.34998 19.6318 1.15498 19.8006C1.34998 19.7368 1.36873 19.7631 1.54873 19.8756C1.29748 19.5793 1.31623 19.5681 1.34998 19.3881C1.52998 19.4481 1.79998 19.4256 1.79998 19.3468C1.79998 19.2681 1.72498 19.1368 1.61623 19.1893C1.51123 19.2418 1.69123 19.3056 1.56373 19.3056C1.43998 19.3056 1.34998 19.2793 1.34998 19.1931C1.34998 19.1068 1.47373 18.9943 1.65373 18.9943C1.83373 18.9943 2.04748 19.0843 2.00998 19.4106C1.97248 19.7368 1.18498 20.0893 1.18498 20.3106C1.18498 20.5356 1.23748 20.8018 1.75498 20.8018C2.09248 20.8281 2.13373 20.6293 2.25748 20.5093V20.5131Z" fill="#FFEC2D"/>
<path fill-rule="evenodd" clip-rule="evenodd" d="M2.21622 15.8741C2.33997 15.7541 2.44122 15.4016 2.77872 15.4241C3.29622 15.4241 3.49122 15.7129 3.49122 15.9341C3.49122 16.1554 2.44122 17.9591 2.40372 18.2854C2.36622 18.6116 2.58372 18.7016 2.75997 18.7016C2.93997 18.7016 3.06372 18.6004 3.06372 18.5066C3.06372 18.4129 2.97372 18.3941 2.84997 18.3941C2.72622 18.3941 2.90247 18.4579 2.79747 18.5066C2.69247 18.5554 2.61747 18.4316 2.61747 18.3529C2.61747 18.2741 2.88747 18.2479 3.06747 18.3079C3.10122 18.1316 3.11622 18.1204 2.86872 17.8204C3.04872 17.9329 3.06372 17.9629 3.26247 17.8954C3.06372 18.0679 3.20997 18.4091 3.21747 18.4954C3.22497 18.5816 3.17997 18.6904 3.10122 18.7429C2.95872 18.8741 2.64372 18.8779 2.45622 18.7954C2.18622 18.6716 2.17122 18.3154 2.24247 18.1954L3.26247 15.9979C3.31872 15.9079 3.17622 15.6079 2.85372 15.5966C2.51622 15.5704 2.39997 15.9266 2.33997 16.0804L2.80122 16.0429C2.80122 16.0429 2.81997 16.1179 2.80122 16.1629C2.64647 16.1742 2.49247 16.1942 2.33997 16.2229L2.32122 16.4554H2.54622L2.53122 16.5604C2.53122 16.5604 2.33997 16.5454 2.32122 16.5604C2.30247 16.5716 2.28372 16.7929 2.28372 16.7929C2.28372 16.7929 2.24622 16.8079 2.20872 16.8079C2.17122 16.8079 2.13372 16.7929 2.13372 16.7929C2.13372 16.7929 2.11872 16.5716 2.09997 16.5604C2.08122 16.5454 1.88997 16.5604 1.88997 16.5604L1.87122 16.4554H2.09997L2.08122 16.2229C2.08122 16.2229 1.85622 16.1779 1.61997 16.1629C1.60497 16.1179 1.61997 16.0466 1.61997 16.0466L2.08122 16.0804C2.02122 15.9266 1.90497 15.5704 1.56747 15.5929C1.24497 15.6079 1.10247 15.9079 1.15497 15.9979L2.17497 18.1954C2.24622 18.3116 2.23122 18.6716 1.96122 18.7954C1.77372 18.8779 1.45872 18.8704 1.31622 18.7429C1.23747 18.6904 1.19247 18.5854 1.19997 18.4991C1.20747 18.4129 1.34997 18.0641 1.15497 17.8991C1.35372 17.9629 1.37247 17.9366 1.54872 17.8204C1.30122 18.1204 1.31622 18.1316 1.35372 18.3079C1.52997 18.2479 1.79997 18.2704 1.79997 18.3529C1.79997 18.4279 1.72497 18.5591 1.61997 18.5066C1.51497 18.4541 1.69497 18.3941 1.56747 18.3941C1.44372 18.3941 1.35372 18.4166 1.35372 18.5066C1.35372 18.5966 1.47747 18.7016 1.65372 18.7016C1.82997 18.7016 2.04747 18.6116 2.01372 18.2891C1.97622 17.9629 0.926224 16.1516 0.926224 15.9341C0.926224 15.7091 1.12122 15.4279 1.63872 15.4279C1.97622 15.4016 2.09997 15.7541 2.21997 15.8741H2.21622Z" fill="#FFEC2D"/>
<path fill-rule="evenodd" clip-rule="evenodd" d="M2.21622 14.9776C2.33997 15.0976 2.44122 15.4501 2.77872 15.4276C3.29622 15.4276 3.49122 15.1388 3.49122 14.9176C3.49122 14.6963 2.44122 12.8926 2.40372 12.5663C2.36622 12.2401 2.58372 12.1501 2.75997 12.1501C2.93997 12.1501 3.06372 12.2513 3.06372 12.3451C3.06372 12.4388 2.97372 12.4576 2.84997 12.4576C2.72622 12.4576 2.90247 12.3976 2.79747 12.3451C2.69247 12.2926 2.61747 12.4201 2.61747 12.4988C2.61747 12.5776 2.88747 12.6038 3.06747 12.5438C3.10122 12.7201 3.11622 12.7313 2.86872 13.0313C3.04872 12.9188 3.06372 12.8888 3.26247 12.9563C3.06372 12.7838 3.20997 12.4426 3.21747 12.3563C3.22497 12.2701 3.17997 12.1613 3.10122 12.1088C2.95872 11.9813 2.64372 11.9738 2.45622 12.0563C2.18622 12.1801 2.17122 12.5363 2.24247 12.6563L3.26247 14.8501C3.31872 14.9401 3.17622 15.2401 2.85372 15.2513C2.51622 15.2776 2.39997 14.9213 2.33997 14.7676L2.80122 14.8051C2.80122 14.8051 2.81997 14.7301 2.80122 14.6851C2.64647 14.6738 2.49247 14.6537 2.33997 14.6251L2.32122 14.3926H2.54622L2.53122 14.2876C2.53122 14.2876 2.33997 14.3026 2.32122 14.2876C2.30247 14.2763 2.28372 14.0551 2.28372 14.0551C2.28372 14.0551 2.24622 14.0401 2.20872 14.0401C2.17122 14.0401 2.13372 14.0551 2.13372 14.0551C2.13372 14.0551 2.11872 14.2763 2.09997 14.2876C2.08122 14.3026 1.88997 14.2876 1.88997 14.2876L1.87122 14.3926H2.09997L2.08122 14.6251C2.08122 14.6251 1.85622 14.6701 1.61997 14.6851C1.60497 14.7301 1.61997 14.8013 1.61997 14.8013L2.08122 14.7676C2.02122 14.9213 1.90497 15.2776 1.56747 15.2551C1.24497 15.2401 1.10247 14.9401 1.15497 14.8501L2.17497 12.6563C2.24622 12.5363 2.23122 12.1801 1.96122 12.0563C1.77372 11.9738 1.45872 11.9813 1.31622 12.1088C1.23747 12.1613 1.19247 12.2663 1.19997 12.3526C1.20747 12.4388 1.34997 12.7838 1.15497 12.9526C1.35372 12.8888 1.37247 12.9151 1.54872 13.0313C1.30122 12.7313 1.31622 12.7201 1.35372 12.5438C1.52997 12.6038 1.79997 12.5813 1.79997 12.4988C1.79997 12.4238 1.72497 12.2926 1.61997 12.3451C1.51497 12.3976 1.69497 12.4576 1.56747 12.4576C1.44372 12.4576 1.35372 12.4351 1.35372 12.3451C1.35372 12.2551 1.47747 12.1501 1.65372 12.1501C1.82997 12.1501 2.04747 12.2401 2.01372 12.5626C1.97622 12.8888 0.926224 14.7001 0.926224 14.9176C0.926224 15.1426 1.12122 15.4238 1.63872 15.4238C1.97622 15.4501 2.09997 15.0976 2.21997 14.9776H2.21622Z" fill="#FFEC2D"/>
<path fill-rule="evenodd" clip-rule="evenodd" d="M2.21622 9.02281C2.33997 8.90281 2.44122 8.55031 2.77872 8.57281C3.29622 8.57281 3.49122 8.86156 3.49122 9.08281C3.49122 9.30406 2.44122 11.1078 2.40372 11.4378C2.36622 11.7603 2.58372 11.8503 2.75997 11.8503C2.93997 11.8503 3.06372 11.7491 3.06372 11.6591C3.06372 11.5691 2.97372 11.5391 2.84997 11.5391C2.72622 11.5391 2.90247 11.6066 2.79747 11.6591C2.69247 11.7116 2.61747 11.5803 2.61747 11.5016C2.61747 11.4266 2.88747 11.3966 3.06747 11.4566C3.10122 11.2803 3.11622 11.2691 2.86872 10.9691C3.04872 11.0853 3.06372 11.1116 3.26247 11.0441C3.06372 11.2166 3.20997 11.5616 3.21747 11.6441C3.22497 11.7266 3.17997 11.8391 3.10122 11.8916C2.95872 12.0228 2.64372 12.0266 2.45622 11.9441C2.18622 11.8203 2.17122 11.4641 2.24247 11.3441L3.26247 9.15031C3.31872 9.06031 3.17622 8.76031 2.85372 8.74906C2.51622 8.72281 2.39997 9.07906 2.33997 9.23281L2.80122 9.19531C2.80122 9.19531 2.81997 9.27031 2.80122 9.31531C2.56122 9.33031 2.33997 9.37531 2.33997 9.37531L2.32122 9.60781H2.54622L2.53122 9.71281C2.53122 9.71281 2.33997 9.70156 2.32122 9.71281C2.30247 9.72406 2.28372 9.94906 2.28372 9.94906C2.28372 9.94906 2.24622 9.96031 2.20872 9.96031C2.17122 9.96031 2.13372 9.94906 2.13372 9.94906C2.13372 9.94906 2.11872 9.72406 2.09997 9.71281C2.08122 9.70156 1.88997 9.71281 1.88997 9.71281L1.87122 9.60781H2.09997L2.08122 9.37531C2.08122 9.37531 1.85622 9.33031 1.61997 9.31531C1.60497 9.27031 1.61997 9.19906 1.61997 9.19906L2.08122 9.23281C2.02122 9.07906 1.90497 8.72281 1.56747 8.74531C1.24497 8.76031 1.10247 9.06031 1.15497 9.15031L2.17497 11.3441C2.24622 11.4641 2.23122 11.8203 1.96122 11.9441C1.77372 12.0266 1.45872 12.0191 1.31622 11.8916C1.23747 11.8391 1.19247 11.7341 1.19997 11.6478C1.20747 11.5616 1.34997 11.2166 1.15497 11.0478C1.35372 11.1116 1.37247 11.0853 1.54872 10.9691C1.30122 11.2691 1.31622 11.2803 1.35372 11.4566C1.52997 11.3966 1.79997 11.4228 1.79997 11.5016C1.79997 11.5766 1.72497 11.7078 1.61997 11.6553C1.51497 11.6066 1.69497 11.5428 1.56747 11.5428C1.44372 11.5428 1.35372 11.5653 1.35372 11.6553C1.35372 11.7453 1.47747 11.8503 1.65372 11.8503C1.82997 11.8503 2.04747 11.7603 2.01372 11.4378C1.97622 11.1116 0.926224 9.30406 0.926224 9.08281C0.926224 8.86156 1.12122 8.57656 1.63872 8.57656C1.97622 8.55031 2.09997 8.90281 2.21997 9.02656L2.21622 9.02281Z" fill="#FFEC2D"/>
<path fill-rule="evenodd" clip-rule="evenodd" d="M2.21622 8.12625C2.33997 8.24625 2.44122 8.6025 2.77872 8.57625C3.29622 8.57625 3.49122 8.2875 3.49122 8.06625C3.49122 7.845 2.44122 6.04125 2.40372 5.715C2.36622 5.38875 2.58372 5.29875 2.75997 5.29875C2.93997 5.29875 3.06372 5.40375 3.06372 5.49375C3.06372 5.58375 2.97372 5.61 2.84997 5.61C2.72622 5.61 2.90247 5.54625 2.79747 5.49375C2.69247 5.44125 2.61747 5.56875 2.61747 5.6475C2.61747 5.72625 2.88747 5.7525 3.06747 5.6925C3.10122 5.86875 3.11622 5.88 2.86872 6.18C3.04872 6.0675 3.06372 6.0375 3.26247 6.105C3.06372 5.93625 3.20997 5.59125 3.21747 5.505C3.22497 5.41875 3.17997 5.31 3.10122 5.2575C2.95872 5.13 2.64372 5.1225 2.45622 5.20875C2.18622 5.32875 2.17122 5.68875 2.24247 5.805L3.26247 8.0025C3.31872 8.0925 3.17622 8.3925 2.85372 8.4075C2.51622 8.43 2.39997 8.0775 2.33997 7.92L2.80122 7.9575C2.80122 7.9575 2.81997 7.8825 2.80122 7.8375C2.64655 7.82731 2.49256 7.80853 2.33997 7.78125L2.32122 7.545H2.54622L2.53122 7.44C2.53122 7.44 2.33997 7.455 2.32122 7.44C2.30247 7.42875 2.28372 7.2075 2.28372 7.2075C2.28372 7.2075 2.24622 7.1925 2.20872 7.1925C2.17122 7.1925 2.13372 7.2075 2.13372 7.2075C2.13372 7.2075 2.11872 7.42875 2.09997 7.44C2.08122 7.455 1.88997 7.44 1.88997 7.44L1.87122 7.545H2.09997L2.08122 7.78125C2.08122 7.78125 1.85622 7.8225 1.61997 7.8375C1.60497 7.88625 1.61997 7.9575 1.61997 7.9575L2.08122 7.92C2.02122 8.0775 1.90497 8.43 1.56747 8.4075C1.24497 8.3925 1.10247 8.0925 1.15497 8.0025L2.17497 5.805C2.24622 5.68875 2.23122 5.32875 1.96122 5.205C1.77372 5.1225 1.45872 5.13 1.31622 5.2575C1.23747 5.31 1.19247 5.415 1.19997 5.50125C1.20747 5.5875 1.34997 5.93625 1.15497 6.10125C1.35372 6.0375 1.37247 6.06375 1.54872 6.18C1.30122 5.88 1.31622 5.86875 1.35372 5.6925C1.53372 5.7525 1.79997 5.73 1.79997 5.6475C1.79997 5.5725 1.72497 5.44125 1.61997 5.49375C1.51497 5.54625 1.69497 5.61 1.56747 5.61C1.44372 5.61 1.35372 5.58375 1.35372 5.49375C1.35372 5.40375 1.47747 5.29875 1.65372 5.29875C1.82997 5.29875 2.05122 5.38875 2.01372 5.71125C1.97622 6.0375 0.926224 7.84875 0.926224 8.06625C0.926224 8.29125 1.12122 8.57625 1.63872 8.57625C1.97622 8.6025 2.09997 8.24625 2.21997 8.12625H2.21622Z" fill="#FFEC2D"/>
<path fill-rule="evenodd" clip-rule="evenodd" d="M2.25748 3.48773C2.38123 3.36773 2.33998 3.16898 2.68123 3.19523C3.19873 3.19523 3.21373 3.51023 3.21373 3.73148C3.21373 3.95273 2.43748 4.26023 2.39998 4.58648C2.36248 4.91273 2.57998 4.99898 2.75998 4.99898C2.93623 4.99898 3.05998 4.89773 3.05998 4.80773C3.05998 4.71773 2.97748 4.68773 2.84998 4.68773C2.72248 4.68773 2.90623 4.75148 2.79748 4.80023C2.68873 4.84898 2.61748 4.72523 2.61748 4.65023C2.61748 4.56773 2.88748 4.54148 3.06748 4.60148C3.10498 4.42523 3.11998 4.41398 2.86873 4.11398C3.04873 4.23023 3.06373 4.25648 3.26248 4.18898C3.06373 4.36148 3.21373 4.70648 3.21748 4.79273C3.22123 4.87898 3.17998 4.98398 3.10498 5.03648C2.95498 5.17523 2.64373 5.17523 2.45623 5.09273C2.18248 4.97273 2.16748 4.61273 2.23873 4.49273L2.99998 3.72398C3.05248 3.63398 3.07498 3.37898 2.75248 3.36773C2.41498 3.34148 2.29498 3.80273 2.23498 3.95648C2.15623 3.78773 2.06623 3.32273 1.72498 3.34898C1.40248 3.36023 1.34248 3.61148 1.39498 3.70523L2.17123 4.49273C2.24623 4.61273 2.23123 4.97273 1.95748 5.09273C1.76998 5.17898 1.45873 5.17148 1.31623 5.04023C1.23373 4.98773 1.18873 4.88648 1.19623 4.79648C1.20373 4.70648 1.34998 4.36523 1.15498 4.19648C1.34998 4.26023 1.36873 4.23398 1.54498 4.12148C1.29748 4.41773 1.31623 4.42898 1.34998 4.60898C1.52998 4.54898 1.79998 4.57148 1.79998 4.65023C1.79998 4.72898 1.72498 4.86023 1.61623 4.80773C1.51123 4.75523 1.69123 4.69148 1.56373 4.69148C1.43998 4.69148 1.34998 4.71773 1.34998 4.80398C1.34998 4.89023 1.47373 5.00273 1.65373 5.00273C1.83373 5.00273 2.04748 4.91273 2.00998 4.58648C1.97248 4.26023 1.18498 3.90773 1.18498 3.68648C1.18498 3.46148 1.23748 3.19523 1.75498 3.19523C2.09248 3.16898 2.13373 3.36773 2.25748 3.48773Z" fill="#FFEC2D"/>
<path d="M16.5569 10.7218C16.5569 8.93908 15.032 7.4939 13.1509 7.4939C11.2698 7.4939 9.74489 8.93908 9.74489 10.7218C9.74489 12.5045 11.2698 13.9497 13.1509 13.9497C15.032 13.9497 16.5569 12.5045 16.5569 10.7218Z" fill="#FFEC2D"/>
<path fill-rule="evenodd" clip-rule="evenodd" d="M12.9908 5.56846C12.9588 5.56846 12.8067 6.64109 12.7507 6.88123C12.6947 7.42156 13.4711 7.40154 13.343 6.86122L12.9908 5.56445V5.56846ZM13.263 15.9666C13.291 15.9666 13.5231 14.906 13.5992 14.6699C13.6912 14.1375 12.9148 14.1095 12.9988 14.6538L13.263 15.9666ZM7.83577 10.6995C7.83577 10.7275 8.95243 10.9517 9.20058 11.0237C9.76091 11.1157 9.80094 10.3833 9.22459 10.4634L7.83577 10.7035V10.6995ZM18.7102 10.8276C18.7102 10.7996 17.5816 10.6155 17.3294 10.5514C16.7651 10.4834 16.7611 11.2158 17.3294 11.1157L18.7102 10.8276ZM8.98045 7.29748C8.96044 7.31749 9.69687 8.14999 9.84496 8.35411C10.2292 8.75435 10.7375 8.19401 10.2292 7.92185L8.98045 7.30148V7.29748ZM17.4295 14.1415C17.4495 14.1215 16.641 13.3531 16.4729 13.165C16.0526 12.7967 15.6004 13.3931 16.1287 13.6252L17.4295 14.1455V14.1415ZM10.6654 6.13679C10.6414 6.1488 10.9856 7.18141 11.0417 7.42556C11.2338 7.93386 11.9302 7.60166 11.57 7.1654L10.6695 6.13679H10.6654ZM15.5924 15.4383C15.6204 15.4263 15.3522 14.3737 15.3162 14.1295C15.1601 13.6092 14.4437 13.8894 14.7679 14.3537L15.5964 15.4343L15.5924 15.4383ZM16.8051 6.85722C16.7811 6.83721 15.8926 7.52161 15.6764 7.6577C15.2482 8.01791 15.8285 8.5062 16.1247 8.02992L16.8051 6.85722ZM9.48074 14.6098C9.50076 14.6298 10.4413 14.0095 10.6654 13.8854C11.1177 13.5572 10.5774 13.0289 10.2452 13.4852L9.48475 14.6098H9.48074ZM8.07991 8.8424C8.06791 8.86641 9.04048 9.43075 9.25261 9.57884C9.75291 9.83899 10.0451 9.15859 9.47274 9.05052L8.07991 8.8424ZM18.2339 12.7807C18.2459 12.7567 17.3134 12.1283 17.1133 11.9683C16.633 11.6721 16.2928 12.3325 16.8571 12.4766L18.2339 12.7807ZM15.008 5.86063C14.98 5.85262 14.4237 6.79718 14.2756 7.00131C14.2759 7.06649 14.2965 7.12995 14.3347 7.18279C14.3729 7.23563 14.4266 7.2752 14.4884 7.29595C14.5502 7.31669 14.617 7.31757 14.6793 7.29847C14.7416 7.27936 14.7964 7.24123 14.8359 7.18942L15.008 5.86063ZM11.2498 15.6384C11.2778 15.6504 11.9022 14.7419 12.0623 14.5458C12.3545 14.0815 11.646 13.7853 11.514 14.3217L11.2498 15.6384ZM8.14795 12.8648C8.15996 12.8888 9.26862 12.6246 9.52877 12.5846C10.0731 12.4325 9.76892 11.7601 9.28863 12.0723L8.14795 12.8648ZM18.2379 8.75435C18.2299 8.73033 17.1053 8.91844 16.8451 8.94246C16.2848 9.05853 16.5449 9.75094 17.0452 9.47077L18.2379 8.75435Z" fill="#FFEC2D"/>
<path fill-rule="evenodd" clip-rule="evenodd" d="M14.0955 5.63657C14.0675 5.63257 13.6913 6.65317 13.5792 6.87731C13.4151 7.39762 14.1795 7.52569 14.1675 6.97336L14.0995 5.63257L14.0955 5.63657ZM12.1543 15.8786C12.1824 15.8867 12.6346 14.8901 12.7627 14.6699C12.9628 14.1656 12.2104 13.9895 12.1824 14.5379L12.1503 15.8786H12.1543ZM11.7661 5.73663C11.7381 5.74463 11.8422 6.82528 11.8422 7.07342C11.9182 7.60574 12.6666 7.42163 12.4185 6.92534L11.7661 5.73663ZM14.4877 15.8186C14.5157 15.8146 14.4877 14.73 14.5077 14.4818C14.4717 13.9415 13.7073 14.0776 13.9234 14.5899L14.4837 15.8186H14.4877ZM9.83696 6.63316C9.81295 6.64917 10.3453 7.60574 10.4453 7.83387C10.7335 8.30215 11.3539 7.86189 10.9176 7.48967L9.83696 6.63316ZM16.4329 14.9541C16.4569 14.9381 15.9926 13.9455 15.9126 13.7134C15.6604 13.2291 15.012 13.6293 15.4163 14.0255L16.4329 14.9541ZM8.42813 7.97796C8.41212 8.00197 9.27263 8.7144 9.45274 8.89851C9.897 9.23471 10.3092 8.61034 9.76492 8.41422L8.42813 7.97796ZM17.8017 13.5693C17.8177 13.5453 17.0132 12.7768 16.8451 12.5847C16.4289 12.2205 15.9726 12.8168 16.5009 13.049L17.8017 13.5693ZM7.81176 9.65496C7.80376 9.68297 8.86439 10.0872 9.09653 10.2033C9.63284 10.3834 9.80494 9.66696 9.2206 9.65095L7.81176 9.65496ZM18.5141 11.9683C18.5261 11.9443 17.4975 11.472 17.2734 11.34C16.7531 11.1238 16.5249 11.8282 17.1053 11.8843L18.5141 11.9683ZM7.77574 11.7162C7.77974 11.7402 8.92442 11.7242 9.18458 11.7442C9.75291 11.7162 9.61683 10.9917 9.07251 11.1879L7.77574 11.7162ZM18.5902 9.91511C18.5902 9.88709 17.4455 9.82706 17.1893 9.79104C16.617 9.78303 16.701 10.5155 17.2574 10.3514L18.5902 9.91111V9.91511ZM8.75632 13.8534C8.77233 13.8775 9.79694 13.3892 10.0371 13.2971C10.5334 13.037 10.0771 12.4406 9.68087 12.8448L8.75632 13.8534ZM17.6536 7.75783C17.6376 7.73382 16.585 8.15406 16.3328 8.23011C15.8165 8.45825 16.2288 9.08262 16.653 8.70639L17.6536 7.75783ZM10.4213 15.2703C10.4453 15.2823 11.1778 14.4498 11.3619 14.2737C11.7101 13.8454 11.0417 13.4732 10.8456 13.9935L10.4213 15.2703ZM16.0126 6.31297C15.9926 6.29696 15.2001 7.07743 15.004 7.24152C14.6278 7.64576 15.2682 8.06201 15.5003 7.55771L16.0086 6.31297H16.0126Z" fill="#FFEC2D"/>
<path fill-rule="evenodd" clip-rule="evenodd" d="M7.94313 12.8688C8.00427 13.0752 8.013 14.2311 9.24461 15.3458C10.4675 16.4521 12.5638 16.6998 12.5638 16.6998C12.5638 16.6998 12.5726 16.8567 12.4241 16.865C12.2756 16.8815 11.5593 16.7411 11.2012 16.6338C10.8518 16.5347 10.5374 16.3531 10.5024 16.3613C10.4587 16.3778 10.3889 16.4934 10.284 16.4769C10.1792 16.4604 9.67261 15.965 9.44551 15.8329C8.99126 15.4618 8.58911 15.0372 8.24884 14.5697C8.00427 14.1981 7.94313 13.9504 7.86451 13.9504C7.7859 13.9504 7.49765 14.1321 7.49765 14.1321C7.49765 14.1321 7.23561 13.7605 7.0085 13.166C6.77266 12.5716 6.79887 12.2248 6.85128 12.2C6.91242 12.1753 6.91242 12.6376 7.08711 13.0587C7.26181 13.488 7.50639 13.6202 7.50639 13.6202C7.50639 13.6202 7.34916 13.3972 7.22687 12.844C7.10458 12.2909 7.05218 11.7542 7.13952 11.5891C7.22687 11.4239 7.30548 11.3744 7.31422 11.3826C7.33169 11.3992 7.16573 11.6386 7.27928 12.2743C7.39283 12.9101 7.69855 13.4468 7.76843 13.422C7.83831 13.3972 7.72476 13.2651 7.68108 12.8936C7.63741 12.522 7.72476 12.2909 7.82084 12.2578C7.86451 12.2248 7.93439 12.6707 7.94313 12.8688ZM7.08711 13.9256C6.85128 13.7192 6.48442 13.0009 6.4058 13.0339C6.31845 13.0752 6.99977 14.1073 7.01724 14.1899C7.03471 14.2889 7.1832 14.5697 7.06965 14.5284C6.95609 14.4871 6.14376 13.6779 6.23984 13.8348C6.33592 13.9917 6.94736 14.7018 6.91242 14.743C6.87748 14.7843 6.4058 14.3467 6.38833 14.4045C6.3796 14.4541 6.85128 14.8834 6.84254 14.9329C6.83381 14.9825 6.53682 14.6605 6.53682 14.7265C6.53682 14.7926 6.84254 15.1146 6.84254 15.1641C6.84254 15.2137 6.5805 14.9329 6.66785 15.0816C6.74646 15.2467 6.97356 15.387 6.96483 15.4366C6.95609 15.4861 6.77266 15.3705 6.77266 15.3953C6.77266 15.4201 7.11332 15.5357 7.19193 15.6265C7.27928 15.7173 7.83831 16.3283 8.25758 16.6338C8.67685 16.9393 9.88225 17.4759 9.96959 17.4759C10.0482 17.4759 10.1705 17.3108 10.1443 17.2448C10.1181 17.1787 8.93889 16.7989 8.6157 16.5182C8.28378 16.2375 7.48018 15.5604 7.4103 15.5274C7.34916 15.4861 7.16573 15.5026 7.16573 15.4614C7.16573 15.4201 7.40157 15.4861 7.3841 15.4614C7.37536 15.4366 7.06091 15.3045 7.06965 15.2797C7.08712 15.2549 7.28802 15.3292 7.28802 15.3045C7.28802 15.2797 6.92116 15.0898 6.93862 15.0485C6.94736 15.0072 7.2094 15.1641 7.2094 15.1311C7.2094 15.1146 6.86001 14.8834 6.86875 14.8421C6.87748 14.8008 7.13952 15.0238 7.13079 14.9742C7.12205 14.9247 6.92115 14.644 6.92115 14.6109C6.92115 14.5697 7.23561 14.8917 7.27055 14.8256C7.28802 14.7678 7.157 14.2311 7.16573 14.2229C7.17446 14.2146 7.40157 14.3385 7.43651 14.2642C7.48018 14.1816 7.27928 14.0743 7.08711 13.9256ZM11.1139 17.9878C10.9479 18.0126 10.8693 17.9548 10.9654 17.8227C11.0964 17.8227 11.4458 17.7154 11.5681 17.6658C11.6903 17.6163 11.8214 17.5502 11.9262 17.4594C12.031 17.3521 12.1009 17.5172 12.0397 17.608C11.9961 17.6658 11.7952 17.7732 11.6467 17.831C11.4283 17.897 11.2361 17.9961 11.1139 17.9878ZM12.2057 17.5668C12.0921 17.4512 12.1882 17.3686 12.3542 17.2778C12.5988 17.1539 12.5289 16.9805 12.8433 16.8402C12.9831 16.7576 14.9397 16.0145 15.5773 15.6182C16.215 15.2219 18.0056 13.9422 18.486 13.0587C18.9577 12.1835 18.7306 12.1175 18.8005 12.0844C18.8616 12.0432 18.9315 12.2083 18.9227 12.4064C18.9053 12.5963 18.7481 13.1743 18.8005 13.2321C18.8529 13.2899 19.5167 12.778 19.7962 12.1588C20.0757 11.5395 20.2854 10.8955 20.4164 10.8955C20.5562 10.8955 20.1893 11.9523 19.9535 12.3652C19.7263 12.778 19.4556 12.9844 19.5167 13.0752C19.5866 13.1578 20.2679 12.6211 20.5037 12.2248C20.7308 11.8202 20.9492 11.4652 20.9929 11.5395C20.9234 12.0232 20.7217 12.4813 20.4077 12.8688C20.0408 13.2651 19.6041 13.5541 19.6739 13.6119C19.7351 13.6779 20.233 13.744 20.7483 13.4137C21.2724 13.0752 21.3248 12.5881 21.386 12.6129C21.4558 12.6376 21.3248 13.3064 20.8269 13.7192C20.329 14.1321 19.6739 14.1733 19.6914 14.2642C19.7263 14.3467 21.1152 13.8844 21.089 13.9917C21.0628 14.0908 19.2896 14.7513 19.2721 14.8173C19.2721 14.8669 19.5779 14.8834 20.0583 14.7761C20.5299 14.677 20.9842 14.322 21.0453 14.4045C21.0628 14.5201 20.7046 14.8008 20.1631 14.9329C19.6128 15.065 19.342 15.2384 19.3245 15.2797C19.3158 15.321 20.3028 15.1641 20.3028 15.2137C20.3028 15.2632 19.0101 15.5026 19.0014 15.5687C18.9839 15.6265 20.2242 15.3292 20.2068 15.4036C20.1718 15.4614 18.5209 15.9237 18.5384 15.9485C18.5472 15.9815 19.9185 15.6678 19.8923 15.7173C19.8574 15.7751 17.5863 16.3778 17.5689 16.4191C17.5514 16.4521 19.5779 15.9898 19.5604 16.0311C19.5429 16.0723 18.5122 16.3118 18.5122 16.3365C18.5122 16.3613 19.342 16.2127 19.3245 16.254C19.3158 16.287 17.2282 16.7906 17.1845 16.865C17.1409 16.9475 18.2676 16.6585 18.2502 16.8072C18.2327 16.9558 15.8306 17.7154 15.8219 17.575C15.8044 17.4347 17.2806 17.0796 17.2719 17.0383C17.2544 16.9971 16.4246 17.1209 16.4071 17.0466C16.3984 16.964 16.9574 16.7989 16.9137 16.7659C16.8701 16.7246 16.4508 16.8815 16.4857 16.7906C16.5294 16.6998 17.3243 16.3531 17.3068 16.3283C17.2981 16.3035 17.0186 16.4108 17.0448 16.3283C17.0797 16.2375 18.7655 15.7751 18.7393 15.7173C18.7131 15.6678 17.9619 15.8329 17.892 15.8494C17.8658 15.7999 18.9402 15.4201 18.9227 15.354C18.8878 15.2962 18.3463 15.5769 18.3113 15.5026C18.2938 15.4201 19.2634 15.065 19.2023 15.0072C19.1411 14.9494 18.7044 15.1559 18.6432 15.0981C18.5821 15.0403 19.5604 14.4045 19.4119 14.388C19.2634 14.3798 19.08 14.5862 19.0625 14.4541C19.08 14.2889 19.8224 14.0165 19.6565 13.8844C19.3944 13.8101 18.5122 13.9422 18.1454 14.1486C17.7785 14.355 16.5556 15.5026 16.2586 15.6843C15.9617 15.8577 14.9484 16.2622 14.7563 16.3448C14.4593 16.4439 14.4069 16.5925 14.1011 16.7411C13.5509 16.8815 13.5596 17.0383 13.2975 17.1292C13.2015 17.1539 12.2144 17.5998 12.2057 17.5668ZM10.8256 18.1447C10.6596 18.2273 10.5112 18.4254 10.6072 18.508C10.6596 18.6071 10.8256 18.2851 10.9566 18.3016L11.6554 18.3346C12.031 18.3594 12.2144 18.2603 12.4241 18.2768C12.6337 18.2933 13.0966 18.1695 13.315 18.1695C13.5334 18.1695 13.5771 18.1943 13.5945 18.1034C13.6207 18.0209 12.9132 18.0787 12.5988 18.0704C12.2843 18.0539 11.8912 18.1282 11.6554 18.1282C11.437 18.1199 11.0614 18.0539 10.8256 18.1447Z" fill="#FFEC2D"/>
<path d="M11.8738 18.0455C11.8738 17.9771 11.8073 17.9216 11.7253 17.9216C11.6433 17.9216 11.5768 17.9771 11.5768 18.0455C11.5768 18.1139 11.6433 18.1693 11.7253 18.1693C11.8073 18.1693 11.8738 18.1139 11.8738 18.0455Z" fill="#FFEC2D"/>
<path fill-rule="evenodd" clip-rule="evenodd" d="M15.359 17.8065C15.5075 17.7818 15.9093 17.9139 16.1888 17.9717C16.6954 18.1616 17.6388 18.0707 17.6388 18.1616C17.6388 18.2524 17.5776 18.3597 17.3592 18.3762C17.1409 18.3927 16.5906 18.2937 16.608 18.2937C16.6255 18.2937 17.0448 18.4836 16.9225 18.5331C16.8002 18.5826 16.4421 18.4258 16.3809 18.467C16.3198 18.5083 16.7129 18.5826 16.643 18.6074C16.5906 18.6322 16.3198 18.5744 16.2325 18.5826C16.1451 18.5991 16.3023 18.69 16.1975 18.723C16.0927 18.7643 15.918 18.6735 15.8481 18.6982C15.7695 18.723 16.0054 18.8634 15.9005 18.8799C15.7957 18.8964 15.5511 18.8138 15.4114 18.7973C15.2716 18.7973 15.5424 18.9294 15.4551 18.9459C15.3677 18.9542 15.1231 18.8386 15.062 18.8386C15.0009 18.8386 15.062 19.0037 14.9746 19.0037C14.8873 19.0037 14.7825 18.8634 14.7301 18.8634C14.6777 18.8634 14.7301 19.0285 14.6427 19.0285C14.5554 19.0285 14.5204 18.8551 14.4506 18.8634C14.3632 18.8799 14.4506 19.0863 14.3283 19.0698C14.2147 19.0615 14.1973 18.8551 14.1012 18.8634C14.0138 18.8799 14.1186 19.0698 14.0313 19.0698C13.9439 19.0698 13.9265 18.8799 13.8391 18.8634C13.7518 18.8551 13.7867 19.045 13.7343 19.045C13.6819 19.045 13.6295 18.8634 13.5945 18.8634C13.5683 18.8634 13.5946 19.045 13.4897 19.0285C13.3849 19.012 13.3849 18.8303 13.3587 18.8386C13.3238 18.8551 13.3238 18.9872 13.2539 18.9872C13.184 18.9872 13.1753 18.8551 13.1491 18.8716C13.1141 18.8799 13.0093 19.045 12.9394 19.0202C12.8608 18.9955 12.9569 18.8634 12.922 18.8634C12.887 18.8634 12.7997 18.9542 12.7473 18.9459C12.6949 18.9377 12.7473 18.8303 12.7298 18.8303C12.7123 18.8303 12.5813 18.8964 12.5202 18.8964C12.459 18.8964 12.2931 18.9789 12.2494 18.9046C12.2057 18.8221 12.3629 18.8221 12.3979 18.7478C12.4241 18.6735 12.3105 18.4505 12.4328 18.3762C12.5464 18.2937 12.922 18.4836 13.481 18.3515C14.4942 18.0955 15.2804 17.7983 15.359 17.8065Z" fill="#FFEC2D"/>
</g>
</g>
<defs>
<clipPath id="clip0_8933_36227">
<rect width="24" height="24" fill="white"/>
</clipPath>
<clipPath id="clip1_8933_36227">
<rect width="24" height="18" fill="white" transform="translate(0 3)"/>
</clipPath>
</defs>
</svg>
